<?xml version="1.0" encoding="UTF-8"?>
<svg width="150" height="150" viewBox="0 0 150 150" fill="none" xmlns="http://www.w3.org/2000/svg">
    <rect width="150" height="150" fill="#F3F4F6"/>
    <path d="M75 40C65.0589 40 57 48.0589 57 58C57 67.9411 65.0589 76 75 76C84.9411 76 93 67.9411 93 58C93 48.0589 84.9411 40 75 40ZM75 70C68.3726 70 63 64.6274 63 58C63 51.3726 68.3726 46 75 46C81.6274 46 87 51.3726 87 58C87 64.6274 81.6274 70 75 70Z" fill="#9CA3AF"/>
    <path d="M75 82C59.536 82 47 94.536 47 110H53C53 97.8497 62.8497 88 75 88C87.1503 88 97 97.8497 97 110H103C103 94.536 90.464 82 75 82Z" fill="#9CA3AF"/>
</svg> 